<svg width="38" height="33" viewBox="0 0 38 33" fill="none" xmlns="http://www.w3.org/2000/svg">
<path fill-rule="evenodd" clip-rule="evenodd" d="M26.6829 12.8886C26.6829 17.9665 21.7926 22.7772 14.8414 22.7772C7.89023 22.7772 3 17.9665 3 12.8886C3 7.81069 7.89023 3 14.8414 3C21.7926 3 26.6829 7.81069 26.6829 12.8886ZM24.1424 22.9329C21.5977 24.7122 18.3628 25.7772 14.8414 25.7772C6.64474 25.7772 0 20.0068 0 12.8886C0 5.77043 6.64474 0 14.8414 0C23.0381 0 29.6829 5.77043 29.6829 12.8886C29.6829 15.9466 28.4565 18.7559 26.4075 20.9658L36.8671 30.0491C37.4925 30.5922 37.4925 31.4729 36.8671 32.0161C36.2416 32.5593 35.2274 32.5593 34.602 32.0161L24.1424 22.9329Z" fill="black"/>
</svg>
